<svg width="16" height="16" viewBox="0 0 16 16" fill="none" xmlns="http://www.w3.org/2000/svg">
<path fill-rule="evenodd" clip-rule="evenodd" d="M10.8476 1.37143C10.2851 1.37143 9.74483 1.59746 9.34584 2.00113L2.89888 8.52384C2.23649 9.19401 1.86364 10.1038 1.86364 11.0534C1.86364 12.0029 2.23649 12.9127 2.89888 13.5829C3.56114 14.2529 4.45848 14.6286 5.39327 14.6286C6.32807 14.6286 7.22541 14.2529 7.88766 13.5829L14.3346 7.06016C14.6001 6.79158 15.0318 6.79028 15.2989 7.05726C15.5659 7.32425 15.5672 7.75842 15.3017 8.027L8.85478 14.5497C7.93743 15.4778 6.69237 16 5.39327 16C4.09418 16 2.84912 15.4778 1.93177 14.5497C1.01456 13.6217 0.5 12.364 0.5 11.0534C0.5 9.74274 1.01456 8.48498 1.93177 7.557L8.37873 1.03429C9.03281 0.372526 9.9208 0 10.8476 0C11.7744 0 12.6624 0.372526 13.3164 1.03429C13.9704 1.69592 14.337 2.59241 14.337 3.52634C14.337 4.46026 13.9704 5.35675 13.3164 6.01838L6.86247 12.5411C6.86238 12.5412 6.86255 12.541 6.86247 12.5411C6.47168 12.9363 5.9406 13.1594 5.38626 13.1594C4.83179 13.1594 4.30086 12.9365 3.91005 12.5411C3.51937 12.1458 3.30062 11.6106 3.30062 11.0534C3.30062 10.4961 3.51937 9.96089 3.91005 9.56562L9.86623 3.54656C10.1319 3.27813 10.5636 3.27709 10.8305 3.54423C11.0974 3.81137 11.0984 4.24554 10.8328 4.51397L4.87717 10.5325C4.74131 10.6699 4.66426 10.8572 4.66426 11.0534C4.66426 11.2495 4.74131 11.4368 4.87717 11.5742C5.01289 11.7116 5.19609 11.7879 5.38626 11.7879C5.57642 11.7879 5.75963 11.7116 5.89535 11.5742L12.3493 5.05154C12.7484 4.64773 12.9734 4.09917 12.9734 3.52634C12.9734 2.9535 12.7484 2.40495 12.3493 2.00113C11.9503 1.59746 11.4101 1.37143 10.8476 1.37143Z" fill="#3F434A"/>
</svg>
