<svg width="17" height="19" viewBox="0 0 17 19" fill="none" xmlns="http://www.w3.org/2000/svg">
<path fill-rule="evenodd" clip-rule="evenodd" d="M4.15078 0.204773C4.56873 0.204773 4.90754 0.591797 4.90754 1.06921V1.65001H7.53162V1.06921C7.53162 0.591797 7.87043 0.204773 8.28838 0.204773C8.70632 0.204773 9.04514 0.591797 9.04514 1.06921V1.65001H11.5677V1.06921C11.5677 0.591797 11.9065 0.204773 12.3244 0.204773C12.7424 0.204773 13.0812 0.591797 13.0812 1.06921V1.65001H13.5857C15.1181 1.65001 16.3605 3.0691 16.3605 4.81963V8.38545C16.3605 8.86287 16.0216 9.2499 15.6037 9.2499C15.1857 9.2499 14.8469 8.86287 14.8469 8.38545V4.81963C14.8469 4.02393 14.2823 3.37889 13.5857 3.37889H13.0812V3.95229C13.0812 4.42971 12.7424 4.81674 12.3244 4.81674C11.9065 4.81674 11.5677 4.42971 11.5677 3.95229V3.37889H9.04514V3.95229C9.04514 4.42971 8.70632 4.81674 8.28838 4.81674C7.87043 4.81674 7.53162 4.42971 7.53162 3.95229V3.37889H4.90754V3.95229C4.90754 4.42971 4.56873 4.81674 4.15078 4.81674C3.73284 4.81674 3.39403 4.42971 3.39403 3.95229V3.37889H2.99108C2.29451 3.37889 1.72982 4.02393 1.72982 4.81963V15.4811C1.72982 16.2768 2.29451 16.9218 2.99108 16.9218H7.37397C7.79191 16.9218 8.13072 17.3088 8.13072 17.7863C8.13072 18.2637 7.79191 18.6507 7.37397 18.6507H2.99108C1.45862 18.6507 0.216309 17.2316 0.216309 15.4811V4.81963C0.216309 3.0691 1.45862 1.65001 2.99108 1.65001H3.39403V1.06921C3.39403 0.591797 3.73284 0.204773 4.15078 0.204773ZM4.87793 7.75873C4.87793 8.20432 4.56171 8.56554 4.17162 8.56554C3.78154 8.56554 3.46532 8.20432 3.46532 7.75873C3.46532 7.31314 3.78154 6.95192 4.17162 6.95192C4.56171 6.95192 4.87793 7.31314 4.87793 7.75873ZM6.89595 8.56554C7.28603 8.56554 7.60225 8.20432 7.60225 7.75873C7.60225 7.31314 7.28603 6.95192 6.89595 6.95192C6.50586 6.95192 6.18964 7.31314 6.18964 7.75873C6.18964 8.20432 6.50586 8.56554 6.89595 8.56554ZM4.87793 10.9053C4.87793 11.3509 4.56171 11.7121 4.17162 11.7121C3.78154 11.7121 3.46532 11.3509 3.46532 10.9053C3.46532 10.4597 3.78154 10.0985 4.17162 10.0985C4.56171 10.0985 4.87793 10.4597 4.87793 10.9053ZM6.89595 11.7121C7.28603 11.7121 7.60225 11.3509 7.60225 10.9053C7.60225 10.4597 7.28603 10.0985 6.89595 10.0985C6.50586 10.0985 6.18964 10.4597 6.18964 10.9053C6.18964 11.3509 6.50586 11.7121 6.89595 11.7121ZM4.87793 14.0288C4.87793 14.4744 4.56171 14.8356 4.17162 14.8356C3.78154 14.8356 3.46532 14.4744 3.46532 14.0288C3.46532 13.5832 3.78154 13.222 4.17162 13.222C4.56171 13.222 4.87793 13.5832 4.87793 14.0288ZM6.89595 14.8356C7.28603 14.8356 7.60225 14.4744 7.60225 14.0288C7.60225 13.5832 7.28603 13.222 6.89595 13.222C6.50586 13.222 6.18964 13.5832 6.18964 14.0288C6.18964 14.4744 6.50586 14.8356 6.89595 14.8356ZM10.3568 7.75873C10.3568 8.20432 10.0406 8.56554 9.65054 8.56554C9.26046 8.56554 8.94424 8.20432 8.94424 7.75873C8.94424 7.31314 9.26046 6.95192 9.65054 6.95192C10.0406 6.95192 10.3568 7.31314 10.3568 7.75873ZM12.3749 8.56554C12.7649 8.56554 13.0812 8.20432 13.0812 7.75873C13.0812 7.31314 12.7649 6.95192 12.3749 6.95192C11.9848 6.95192 11.6686 7.31314 11.6686 7.75873C11.6686 8.20432 11.9848 8.56554 12.3749 8.56554Z" fill="#595F69"/>
<path fill-rule="evenodd" clip-rule="evenodd" d="M14.8469 14.0403C14.8469 15.6317 13.7175 16.9218 12.3244 16.9218C10.9312 16.9218 9.80184 15.6317 9.80184 14.0403C9.80184 12.449 10.9312 11.1589 12.3244 11.1589C13.7175 11.1589 14.8469 12.449 14.8469 14.0403ZM16.3604 14.0403C16.3604 16.5866 14.5534 18.6507 12.3244 18.6507C10.0953 18.6507 8.28833 16.5866 8.28833 14.0403C8.28833 11.4941 10.0953 9.42999 12.3244 9.42999C14.5534 9.42999 16.3604 11.4941 16.3604 14.0403ZM12.5262 12.8878C12.5262 12.5695 12.3003 12.3115 12.0217 12.3115C11.743 12.3115 11.5172 12.5695 11.5172 12.8878V14.6166C11.5172 14.9349 11.743 15.1929 12.0217 15.1929H13.2325C13.5111 15.1929 13.737 14.9349 13.737 14.6166C13.737 14.2984 13.5111 14.0403 13.2325 14.0403H12.5262V12.8878Z" fill="#595F69"/>
</svg>
