<svg width="16" height="17" viewBox="0 0 16 17" fill="none" xmlns="http://www.w3.org/2000/svg">
<path fill-rule="evenodd" clip-rule="evenodd" d="M3.89935 0C4.31356 0 4.64935 0.335786 4.64935 0.75V1.25391H7.25V0.75C7.25 0.335786 7.58579 0 8 0C8.41421 0 8.75 0.335786 8.75 0.75V1.25391H11.25V0.75C11.25 0.335786 11.5858 0 12 0C12.4142 0 12.75 0.335786 12.75 0.75V1.25391H13.25C14.7688 1.25391 16 2.48512 16 4.00391V7.09766C16 7.51187 15.6642 7.84766 15.25 7.84766C14.8358 7.84766 14.5 7.51187 14.5 7.09766V4.00391C14.5 3.31355 13.9404 2.75391 13.25 2.75391H12.75V3.2514C12.75 3.66561 12.4142 4.0014 12 4.0014C11.5858 4.0014 11.25 3.66561 11.25 3.2514V2.75391H8.75V3.2514C8.75 3.66561 8.41421 4.0014 8 4.0014C7.58579 4.0014 7.25 3.66561 7.25 3.2514V2.75391H4.64935V3.2514C4.64935 3.66561 4.31356 4.0014 3.89935 4.0014C3.48513 4.0014 3.14935 3.66561 3.14935 3.2514V2.75391H2.75C2.05964 2.75391 1.5 3.31355 1.5 4.00391V13.2539C1.5 13.9443 2.05964 14.5039 2.75 14.5039H7.09375C7.50796 14.5039 7.84375 14.8397 7.84375 15.2539C7.84375 15.6681 7.50796 16.0039 7.09375 16.0039H2.75C1.23122 16.0039 0 14.7727 0 13.2539V4.00391C0 2.48512 1.23122 1.25391 2.75 1.25391H3.14935V0.75C3.14935 0.335786 3.48513 0 3.89935 0ZM4.62 6.5539C4.62 6.9405 4.3066 7.2539 3.92 7.2539C3.5334 7.2539 3.22 6.9405 3.22 6.5539C3.22 6.16731 3.5334 5.8539 3.92 5.8539C4.3066 5.8539 4.62 6.16731 4.62 6.5539ZM6.62 7.2539C7.0066 7.2539 7.32 6.9405 7.32 6.5539C7.32 6.16731 7.0066 5.8539 6.62 5.8539C6.2334 5.8539 5.92 6.16731 5.92 6.5539C5.92 6.9405 6.2334 7.2539 6.62 7.2539ZM4.62 9.28391C4.62 9.67051 4.3066 9.98391 3.92 9.98391C3.5334 9.98391 3.22 9.67051 3.22 9.28391C3.22 8.89731 3.5334 8.58391 3.92 8.58391C4.3066 8.58391 4.62 8.89731 4.62 9.28391ZM6.62 9.98391C7.0066 9.98391 7.32 9.67051 7.32 9.28391C7.32 8.89731 7.0066 8.58391 6.62 8.58391C6.2334 8.58391 5.92 8.89731 5.92 9.28391C5.92 9.67051 6.2334 9.98391 6.62 9.98391ZM4.62 11.9939C4.62 12.3805 4.3066 12.6939 3.92 12.6939C3.5334 12.6939 3.22 12.3805 3.22 11.9939C3.22 11.6073 3.5334 11.2939 3.92 11.2939C4.3066 11.2939 4.62 11.6073 4.62 11.9939ZM6.62 12.6939C7.0066 12.6939 7.32 12.3805 7.32 11.9939C7.32 11.6073 7.0066 11.2939 6.62 11.2939C6.2334 11.2939 5.92 11.6073 5.92 11.9939C5.92 12.3805 6.2334 12.6939 6.62 12.6939ZM10.05 6.5539C10.05 6.9405 9.7366 7.2539 9.35 7.2539C8.9634 7.2539 8.65 6.9405 8.65 6.5539C8.65 6.16731 8.9634 5.8539 9.35 5.8539C9.7366 5.8539 10.05 6.16731 10.05 6.5539ZM12.05 7.2539C12.4366 7.2539 12.75 6.9405 12.75 6.5539C12.75 6.16731 12.4366 5.8539 12.05 5.8539C11.6634 5.8539 11.35 6.16731 11.35 6.5539C11.35 6.9405 11.6634 7.2539 12.05 7.2539Z" fill="#3F434A"/>
<path fill-rule="evenodd" clip-rule="evenodd" d="M14.5 12.0039C14.5 13.3846 13.3807 14.5039 12 14.5039C10.6193 14.5039 9.5 13.3846 9.5 12.0039C9.5 10.6232 10.6193 9.50391 12 9.50391C13.3807 9.50391 14.5 10.6232 14.5 12.0039ZM16 12.0039C16 14.213 14.2091 16.0039 12 16.0039C9.79086 16.0039 8 14.213 8 12.0039C8 9.79477 9.79086 8.00391 12 8.00391C14.2091 8.00391 16 9.79477 16 12.0039ZM12.2 11.0039C12.2 10.7278 11.9761 10.5039 11.7 10.5039C11.4239 10.5039 11.2 10.7278 11.2 11.0039V12.5039C11.2 12.78 11.4239 13.0039 11.7 13.0039H12.9C13.1761 13.0039 13.4 12.78 13.4 12.5039C13.4 12.2278 13.1761 12.0039 12.9 12.0039H12.2V11.0039Z" fill="#3F434A"/>
</svg>
