<svg width="20" height="20" viewBox="0 0 20 20" fill="none" xmlns="http://www.w3.org/2000/svg">
<path fill-rule="evenodd" clip-rule="evenodd" d="M8.05002 3.70503C8.1813 3.57375 8.35935 3.5 8.545 3.5H11.445C11.6306 3.5 11.8087 3.57375 11.94 3.70503C12.0712 3.8363 12.145 4.01435 12.145 4.2V4.9L7.845 4.89999V4.2C7.845 4.01435 7.91875 3.8363 8.05002 3.70503ZM6.345 4.89999V4.2C6.345 3.61652 6.57678 3.05694 6.98936 2.64437C7.40194 2.23179 7.96152 2 8.545 2H11.445C12.0285 2 12.5881 2.23179 13.0006 2.64437C13.4132 3.05694 13.645 3.61652 13.645 4.2V4.9L16.52 4.89999C16.9342 4.89999 17.27 5.23578 17.27 5.64999C17.27 6.06421 16.9342 6.39999 16.52 6.39999H15.82V15.8C15.82 16.3835 15.5882 16.9431 15.1756 17.3556C14.7631 17.7682 14.2035 18 13.62 18H6.37C5.78652 18 5.22694 17.7682 4.81436 17.3556C4.40178 16.9431 4.17 16.3835 4.17 15.8V6.39999H3.47C3.05579 6.39999 2.72 6.06421 2.72 5.64999C2.72 5.23578 3.05579 4.89999 3.47 4.89999H6.345ZM5.67 15.8V6.4H14.32V15.8C14.32 15.9857 14.2462 16.1637 14.115 16.295C13.9837 16.4263 13.8056 16.5 13.62 16.5H6.37C6.18435 16.5 6.0063 16.4263 5.87502 16.295C5.74375 16.1637 5.67 15.9857 5.67 15.8ZM8.54501 8.52502C8.95923 8.52502 9.29501 8.86081 9.29501 9.27502V13.625C9.29501 14.0392 8.95923 14.375 8.54501 14.375C8.1308 14.375 7.79501 14.0392 7.79501 13.625V9.27502C7.79501 8.86081 8.1308 8.52502 8.54501 8.52502ZM12.195 9.27502C12.195 8.86081 11.8592 8.52502 11.445 8.52502C11.0308 8.52502 10.695 8.86081 10.695 9.27502V13.625C10.695 14.0392 11.0308 14.375 11.445 14.375C11.8592 14.375 12.195 14.0392 12.195 13.625V9.27502Z" fill="#3F434A"/>
</svg>
