<svg width="16" height="16" viewBox="0 0 16 16" fill="none" xmlns="http://www.w3.org/2000/svg">
<path fill-rule="evenodd" clip-rule="evenodd" d="M8 0C3.58167 0 0 3.58167 0 8C0 12.4183 3.58167 16 8 16C12.4175 16 16 12.4183 16 7.99917C16 3.58167 12.4175 0 8 0ZM8 14.3325C4.5025 14.3325 1.66667 11.4975 1.66667 7.99917C1.66667 4.50083 4.50167 1.66667 8 1.66667C11.4975 1.66667 14.3342 4.50167 14.3342 8C14.3342 11.4983 11.4975 14.3325 8 14.3325ZM7.16667 6.33333C7.16667 7.13917 6.6075 7.79167 5.9175 7.79167C5.22667 7.79167 4.66667 7.13917 4.66667 6.33333C4.66667 5.5275 5.22667 4.875 5.91667 4.875C6.60667 4.875 7.16667 5.5275 7.16667 6.33333ZM10.0833 7.79167C10.7742 7.79167 11.3333 7.13917 11.3333 6.33333C11.3333 5.5275 10.7733 4.875 10.0833 4.875C9.39333 4.875 8.83333 5.52833 8.83333 6.33333C8.83333 7.13833 9.39333 7.79167 10.0833 7.79167ZM10.7775 9.38C10.9383 9.0775 11.315 8.95833 11.6175 9.11333C11.9225 9.27 12.0458 9.63917 11.8925 9.945C11.8517 10.0275 10.855 11.9575 8.00083 11.9575C5.1475 11.9575 4.14917 10.0283 4.1075 9.94583C3.95333 9.63667 4.07833 9.26167 4.38667 9.10667C4.69667 8.9525 5.06667 9.07667 5.22333 9.38083C5.25833 9.44667 5.95833 10.7075 8.00083 10.7075C10.0533 10.7075 10.7492 9.435 10.7775 9.38Z" fill="#3F434A"/>
</svg>
