<svg width="20" height="20" viewBox="0 0 20 20" fill="none" xmlns="http://www.w3.org/2000/svg">
<path fill-rule="evenodd" clip-rule="evenodd" d="M5.2 2H11C11.1989 2 11.3897 2.07902 11.5303 2.21967L15.8803 6.56967C16.021 6.71032 16.1 6.90109 16.1 7.1V15.8C16.1 16.9983 15.0983 18 13.9 18H5.2C4.00173 18 3 16.9983 3 15.8V4.2C3 3.00173 4.00173 2 5.2 2ZM5.2 3.5C4.8287 3.5 4.5 3.8287 4.5 4.2V15.8C4.5 16.1713 4.8287 16.5 5.2 16.5H13.9C14.2713 16.5 14.6 16.1713 14.6 15.8V7.85001H11C10.5858 7.85001 10.25 7.51422 10.25 7.10001V3.5H5.2ZM11.75 4.56066L13.5393 6.35001H11.75V4.56066ZM5.90039 7.8252C5.90039 7.41098 6.23618 7.0752 6.65039 7.0752H8.10039C8.5146 7.0752 8.85039 7.41098 8.85039 7.8252C8.85039 8.23941 8.5146 8.5752 8.10039 8.5752H6.65039C6.23618 8.5752 5.90039 8.23941 5.90039 7.8252ZM6.65039 9.9751C6.23618 9.9751 5.90039 10.3109 5.90039 10.7251C5.90039 11.1393 6.23618 11.4751 6.65039 11.4751H12.4504C12.8646 11.4751 13.2004 11.1393 13.2004 10.7251C13.2004 10.3109 12.8646 9.9751 12.4504 9.9751H6.65039ZM6.65039 12.875C6.23618 12.875 5.90039 13.2108 5.90039 13.625C5.90039 14.0392 6.23618 14.375 6.65039 14.375H12.4504C12.8646 14.375 13.2004 14.0392 13.2004 13.625C13.2004 13.2108 12.8646 12.875 12.4504 12.875H6.65039Z" fill="#8A9099"/>
</svg>
