<svg width="14" height="16" viewBox="0 0 14 16" fill="none" xmlns="http://www.w3.org/2000/svg">
<path fill-rule="evenodd" clip-rule="evenodd" d="M2.2 0H8C8.19891 0 8.38968 0.0790176 8.53033 0.21967L12.8803 4.56967C13.021 4.71032 13.1 4.90109 13.1 5.1V13.8C13.1 14.9983 12.0983 16 10.9 16H2.2C1.00173 16 0 14.9983 0 13.8V2.2C0 1.00173 1.00173 0 2.2 0ZM2.2 1.5C1.8287 1.5 1.5 1.8287 1.5 2.2V13.8C1.5 14.1713 1.8287 14.5 2.2 14.5H10.9C11.2713 14.5 11.6 14.1713 11.6 13.8V5.85001H8C7.58579 5.85001 7.25 5.51422 7.25 5.10001V1.5H2.2ZM8.75 2.56066L10.5393 4.35001H8.75V2.56066ZM2.90039 5.8252C2.90039 5.41098 3.23618 5.0752 3.65039 5.0752H5.10039C5.5146 5.0752 5.85039 5.41098 5.85039 5.8252C5.85039 6.23941 5.5146 6.5752 5.10039 6.5752H3.65039C3.23618 6.5752 2.90039 6.23941 2.90039 5.8252ZM3.65039 7.9751C3.23618 7.9751 2.90039 8.31088 2.90039 8.7251C2.90039 9.13931 3.23618 9.4751 3.65039 9.4751H9.45039C9.8646 9.4751 10.2004 9.13931 10.2004 8.7251C10.2004 8.31088 9.8646 7.9751 9.45039 7.9751H3.65039ZM3.65039 10.875C3.23618 10.875 2.90039 11.2108 2.90039 11.625C2.90039 12.0392 3.23618 12.375 3.65039 12.375H9.45039C9.8646 12.375 10.2004 12.0392 10.2004 11.625C10.2004 11.2108 9.8646 10.875 9.45039 10.875H3.65039Z" fill="#3F434A"/>
</svg>
