<svg width="14" height="17" viewBox="0 0 14 17" fill="none" xmlns="http://www.w3.org/2000/svg">
<path fill-rule="evenodd" clip-rule="evenodd" d="M4.87462 2.16708V1.5H9.12529V2.90048H4.87462V2.23343C4.87509 2.22243 4.87534 2.21137 4.87534 2.20026C4.87534 2.18914 4.87509 2.17808 4.87462 2.16708ZM3.37482 1.45026H2.68767C2.10535 1.45026 1.5482 1.68367 1.13845 2.097C0.728914 2.51012 0.5 3.06905 0.5 3.65049V13.8022C0.5 14.3836 0.728914 14.9425 1.13845 15.3557C1.5482 15.769 2.10534 16.0024 2.68767 16.0024H11.3137C11.896 16.0024 12.4531 15.769 12.8629 15.3557C13.2724 14.9425 13.5013 14.3836 13.5013 13.8022V3.65049C13.5013 3.06905 13.2724 2.51012 12.8629 2.097C12.4531 1.68367 11.896 1.45026 11.3137 1.45026H10.6251C10.6119 0.652982 9.96542 0 9.15645 0H4.84345C4.03449 0 3.38801 0.652982 3.37482 1.45026ZM10.6251 2.95026C10.6119 3.74751 9.96541 4.40048 9.15645 4.40048H4.84345C4.0345 4.40048 3.38803 3.74751 3.37482 2.95026H2.68767C2.5074 2.95026 2.33319 3.02243 2.20372 3.15304C2.07402 3.28387 2 3.46268 2 3.65049V13.8022C2 13.99 2.07402 14.1688 2.20372 14.2996C2.33319 14.4302 2.5074 14.5024 2.68767 14.5024H11.3137C11.4939 14.5024 11.6682 14.4302 11.7976 14.2996C11.9273 14.1688 12.0013 13.99 12.0013 13.8022V3.65049C12.0013 3.46268 11.9273 3.28387 11.7976 3.15304C11.6682 3.02243 11.4939 2.95026 11.3137 2.95026H10.6251Z" fill="#3F434A"/>
</svg>
