<svg width="17" height="14" viewBox="0 0 17 14" fill="none" xmlns="http://www.w3.org/2000/svg">
<path fill-rule="evenodd" clip-rule="evenodd" d="M1.5847 2.36875C1.70384 2.15013 1.93617 2 2.20006 2H13.8001C14.064 2 14.2963 2.15013 14.4154 2.36876L8.00006 6.85951L1.5847 2.36875ZM9.76305e-05 2.68723C-1.8994e-05 2.69447 -3.10552e-05 2.7017 6.10278e-05 2.70893V11.4C6.10278e-05 12.6117 0.988348 13.6 2.20006 13.6H13.8001C15.0118 13.6 16.0001 12.6117 16.0001 11.4C16.0001 10.4324 16.0031 9.46463 16.0061 8.49683C16.0122 6.56331 16.0182 4.6296 16.0001 2.69659C16.0001 2.69373 16.0001 2.69086 16 2.68799C16 2.68524 16 2.68248 16 2.67972C15.9888 1.49855 15.0049 0.5 13.8001 0.5H2.20006C0.992607 0.5 0.00701186 1.48135 9.76305e-05 2.68723ZM14.5001 4.1405V11.4C14.5001 11.7833 14.1833 12.1 13.8001 12.1H2.20006C1.81677 12.1 1.50006 11.7833 1.50006 11.4V4.14049L7.56997 8.38942C7.82821 8.57019 8.17192 8.57019 8.43016 8.38942L14.5001 4.1405Z" fill="#3F434A"/>
</svg>
