<svg width="16" height="16" viewBox="0 0 16 16" fill="none" xmlns="http://www.w3.org/2000/svg">
<path fill-rule="evenodd" clip-rule="evenodd" d="M1.75225 1.75225C1.91376 1.59074 2.13281 1.5 2.36122 1.5H13.6398C13.8682 1.5 14.0872 1.59074 14.2488 1.75225C14.4103 1.91376 14.501 2.13281 14.501 2.36122V10.4173C14.501 10.6457 14.4103 10.8648 14.2488 11.0263C14.0872 11.1878 13.8682 11.2786 13.6398 11.2786H3.97245C3.77353 11.2786 3.58277 11.3576 3.44212 11.4982L1.5 13.4403V2.36122C1.5 2.13281 1.59074 1.91376 1.75225 1.75225ZM2.36122 0C1.73499 0 1.1344 0.248771 0.691586 0.691586C0.248771 1.1344 0 1.73499 0 2.36122V15.251C0 15.5544 0.182732 15.8278 0.462987 15.9439C0.743243 16.06 1.06583 15.9958 1.28033 15.7813L4.28311 12.7786H13.6398C14.266 12.7786 14.8666 12.5298 15.3094 12.087C15.7522 11.6442 16.001 11.0436 16.001 10.4173V2.36122C16.001 1.73499 15.7522 1.1344 15.3094 0.691586C14.8666 0.248771 14.266 0 13.6398 0H2.36122ZM3.74266 4C3.32845 4 2.99266 4.33579 2.99266 4.75C2.99266 5.16421 3.32845 5.5 3.74266 5.5H12.25C12.6642 5.5 13 5.16421 13 4.75C13 4.33579 12.6642 4 12.25 4H3.74266ZM3.75 7.00052C3.33579 7.00052 3 7.33631 3 7.75052C3 8.16474 3.33579 8.50052 3.75 8.50052H9.25311C9.66732 8.50052 10.0031 8.16474 10.0031 7.75052C10.0031 7.33631 9.66732 7.00052 9.25311 7.00052L3.75 7.00052Z" fill="#8A9099"/>
</svg>
