<svg width="16" height="18" viewBox="0 0 16 18" fill="none" xmlns="http://www.w3.org/2000/svg">
<path d="M14.8751 12.6537C14.2584 11.9401 13.1045 10.8666 13.1045 7.35001C13.1045 4.67907 11.3656 2.54095 9.02076 2.01639V1.30001C9.02076 0.692606 8.56367 0.200012 7.99997 0.200012C7.43628 0.200012 6.97919 0.692606 6.97919 1.30001V2.01639C4.63438 2.54095 2.8954 4.67907 2.8954 7.35001C2.8954 10.8666 1.74151 11.9401 1.12482 12.6537C0.933308 12.8754 0.848402 13.1405 0.849998 13.4C0.853509 13.9638 1.26431 14.5 1.87461 14.5H14.1253C14.7356 14.5 15.1468 13.9638 15.15 13.4C15.1515 13.1405 15.0666 12.8751 14.8751 12.6537ZM3.00552 12.85C3.68286 11.8885 4.42339 10.2949 4.4269 7.36995C4.4269 7.36307 4.42499 7.35689 4.42499 7.35001C4.42499 5.22357 6.02543 3.50001 7.99997 3.50001C9.97452 3.50001 11.575 5.22357 11.575 7.35001C11.575 7.35689 11.573 7.36307 11.573 7.36995C11.5766 10.2953 12.3171 11.8889 12.9944 12.85H3.00552ZM7.99997 17.8C9.12737 17.8 10.0419 16.8152 10.0419 15.6H5.95808C5.95808 16.8152 6.87258 17.8 7.99997 17.8Z" fill="#3F434A"/>
</svg>
