<svg width="22" height="22" viewBox="0 0 22 22" fill="none" xmlns="http://www.w3.org/2000/svg">
<path d="M17.8751 14.6537C17.2584 13.9401 16.1045 12.8666 16.1045 9.35001C16.1045 6.67907 14.3656 4.54095 12.0208 4.01639V3.30001C12.0208 2.69261 11.5637 2.20001 11 2.20001C10.4363 2.20001 9.97919 2.69261 9.97919 3.30001V4.01639C7.63438 4.54095 5.8954 6.67907 5.8954 9.35001C5.8954 12.8666 4.74151 13.9401 4.12482 14.6537C3.93331 14.8754 3.8484 15.1405 3.85 15.4C3.85351 15.9638 4.26431 16.5 4.87461 16.5H17.1253C17.7356 16.5 18.1468 15.9638 18.15 15.4C18.1515 15.1405 18.0666 14.8751 17.8751 14.6537ZM6.00552 14.85C6.68286 13.8885 7.42339 12.2949 7.4269 9.36995C7.4269 9.36307 7.42499 9.35689 7.42499 9.35001C7.42499 7.22357 9.02543 5.50001 11 5.50001C12.9745 5.50001 14.575 7.22357 14.575 9.35001C14.575 9.35689 14.573 9.36307 14.573 9.36995C14.5766 12.2953 15.3171 13.8889 15.9944 14.85H6.00552ZM11 19.8C12.1274 19.8 13.0419 18.8152 13.0419 17.6H8.95808C8.95808 18.8152 9.87258 19.8 11 19.8Z" fill="#3F434A"/>
<path d="M15.95 8.20001C17.7449 8.20001 19.2 6.74494 19.2 4.95001C19.2 3.15509 17.7449 1.70001 15.95 1.70001C14.155 1.70001 12.7 3.15509 12.7 4.95001C12.7 6.74494 14.155 8.20001 15.95 8.20001Z" fill="#FD7972" stroke="white"/>
</svg>
