<svg width="17" height="17" viewBox="0 0 17 17" fill="none" xmlns="http://www.w3.org/2000/svg">
<path fill-rule="evenodd" clip-rule="evenodd" d="M15.7836 0.219691C15.9499 0.385969 16.0218 0.610899 15.9992 0.827886C15.9927 0.890988 15.9782 0.953419 15.9556 1.01354L10.885 15.501C10.7834 15.7913 10.515 15.9901 10.2077 16.0027C9.90044 16.0152 9.61666 15.8389 9.49177 15.5579L6.70827 9.29502L0.4454 6.51152C0.164389 6.38663 -0.0119082 6.10285 0.000627218 5.79559C0.0131626 5.48833 0.211991 5.21986 0.502241 5.11827L14.9899 0.0475942C15.0485 0.0256622 15.1093 0.0113134 15.1707 0.00454793C15.2162 -0.000483556 15.2617 -0.00131457 15.3069 0.00192749C15.4806 0.0142995 15.6508 0.0868873 15.7836 0.219691ZM12.399 2.54362L2.78331 5.90912L7.11037 7.83226L12.399 2.54362ZM8.17103 8.89292L13.4597 3.60429L10.0942 13.22L8.17103 8.89292Z" fill="#3F434A"/>
</svg>
