<svg width="20" height="20" viewBox="0 0 20 20" fill="none" xmlns="http://www.w3.org/2000/svg">
<path fill-rule="evenodd" clip-rule="evenodd" d="M0.770993 6.12596C-0.113285 7.57984 0.731525 9.08173 1.7502 9.6396L1.95927 9.75374C1.95607 9.83694 1.95394 9.92014 1.95287 10.0001C1.95394 10.0801 1.95607 10.1633 1.95927 10.2465L1.7502 10.3607C0.731525 10.9186 -0.113285 12.4204 0.770993 13.8743L1.95181 15.8135C2.77742 17.1693 4.38597 17.2301 5.36945 16.6914L5.55932 16.5869C5.79612 16.7405 6.04252 16.8834 6.29426 17.0157V17.052C6.29426 18.3554 7.3236 19.6003 8.81909 19.6003H11.1807C12.6762 19.6003 13.7055 18.3554 13.7055 17.052V17.0157C13.9573 16.8834 14.2037 16.7405 14.4405 16.5869L14.6304 16.6914C15.6138 17.2301 17.2224 17.1693 18.048 15.8135L19.2288 13.8743C20.1131 12.4204 19.2683 10.9186 18.2496 10.3607L18.0405 10.2465C18.0437 10.1633 18.0459 10.0801 18.0469 10.0001C18.0459 9.92014 18.0437 9.83694 18.0405 9.75374L18.2496 9.6396C19.2683 9.08173 20.1131 7.57984 19.2288 6.12596L18.048 4.18674C17.2224 2.83099 15.6138 2.77125 14.6304 3.30886L14.4405 3.41339C14.2037 3.25979 13.9573 3.11686 13.7055 2.98459V2.94832C13.7055 1.64484 12.6762 0.400024 11.1807 0.400024H8.81909C7.3236 0.400024 6.29426 1.64484 6.29426 2.94832V2.98459C6.04252 3.11686 5.79612 3.25979 5.55932 3.41339L5.36945 3.30886C4.38597 2.77125 2.77742 2.83099 1.95181 4.18674L0.770993 6.12596ZM5.75665 5.95316L4.34757 5.18088C4.1385 5.06675 3.88036 5.11795 3.77156 5.29715L2.59075 7.23637C2.48195 7.41557 2.56301 7.65238 2.77208 7.76758L4.26117 8.58252C4.14597 9.03586 4.0841 9.5116 4.0841 10.0001C4.0841 10.4887 4.14597 10.9644 4.26117 11.4178L2.77208 12.2327C2.56301 12.3479 2.48195 12.5847 2.59075 12.7639L3.77156 14.7031C3.88036 14.8823 4.1385 14.9335 4.34757 14.8194L5.75665 14.0471C6.47986 14.7778 7.39614 15.3218 8.42548 15.6002V17.052C8.42548 17.2813 8.60149 17.4669 8.81909 17.4669H11.1807C11.3983 17.4669 11.5743 17.2813 11.5743 17.052V15.6002C12.6037 15.3218 13.5199 14.7778 14.2432 14.0471L15.6522 14.8194C15.8613 14.9335 16.1194 14.8823 16.2282 14.7031L17.4091 12.7639C17.5179 12.5847 17.4368 12.3479 17.2277 12.2327L15.7386 11.4178C15.8538 10.9644 15.9157 10.4887 15.9157 10.0001C15.9157 9.5116 15.8538 9.03586 15.7386 8.58252L17.2277 7.76758C17.4368 7.65238 17.5179 7.41557 17.4091 7.23637L16.2282 5.29715C16.1194 5.11795 15.8613 5.06675 15.6522 5.18088L14.2432 5.95316C13.5199 5.22248 12.6037 4.67848 11.5743 4.40114V2.94832C11.5743 2.71899 11.3983 2.53338 11.1807 2.53338H8.81909C8.60149 2.53338 8.42548 2.71899 8.42548 2.94832V4.40114C7.39614 4.67848 6.47986 5.22248 5.75665 5.95316ZM9.99575 13.2002C11.7611 13.2002 13.1915 11.7676 13.1915 10.0001C13.1915 8.23265 11.7611 6.8001 9.99575 6.8001C8.2304 6.8001 6.79998 8.23265 6.79998 10.0001C6.79998 11.7676 8.2304 13.2002 9.99575 13.2002ZM11.1999 10C11.1999 10.6624 10.663 11.2 9.9999 11.2C9.33684 11.2 8.7999 10.6624 8.7999 10C8.7999 9.33762 9.33684 8.80002 9.9999 8.80002C10.663 8.80002 11.1999 9.33762 11.1999 10Z" fill="#595F69"/>
</svg>
